<svg width="375" height="375" viewBox="0 0 375 375" fill="none" xmlns="http://www.w3.org/2000/svg">
<g opacity="0.6">
<circle cx="187.5" cy="187.5" r="187.5" fill="#F54768"/>
<path d="M181.02 67.56V84.38H182.56V69.08H192.54V84.3H194.12V67.56H181.02ZM182.04 74.5V75.98H193.2V74.5H182.04ZM182.02 81.58V83.08H193.24V81.58H182.02ZM178.78 93.42V94.94H196.24V93.42H178.78ZM182.78 102.34V103.86H192.1V102.34H182.78ZM186.68 89.22V107.6H188.26V89.22H186.68ZM186.22 93.92C184.62 97.76 181.44 101.48 178.1 103.22C178.44 103.52 178.94 104.08 179.18 104.46C182.64 102.44 185.78 98.62 187.56 94.38L186.22 93.92ZM188.76 93.98L187.42 94.44C189.18 98.64 192.26 102.46 195.8 104.42C196.04 104 196.56 103.4 196.94 103.08C193.48 101.42 190.34 97.78 188.76 93.98ZM186.46 112.82C186.32 115.48 186.32 125.1 178.16 129.26C178.62 129.6 179.12 130.06 179.38 130.44C187.66 125.94 187.96 115.96 188.12 112.82H186.46ZM188.06 113.22L186.62 113.36C186.76 115.2 187.32 126.38 195.8 130.44C196.04 130.02 196.5 129.52 196.94 129.18C188.7 125.4 188.12 114.78 188.06 113.22ZM188.76 138.36L187.1 138.32C186.9 140.4 186.48 142.66 185.9 144.56C184.88 147.94 183.8 149.3 182.86 149.3C181.96 149.3 180.82 148.18 180.82 145.66C180.82 142.72 183.56 139.1 187.96 139.1C191.8 139.1 194.02 141.74 194.02 144.94C194.02 148.4 191.5 150.32 188.94 150.9C188.46 151 187.86 151.08 187.22 151.14L188.14 152.62C192.9 152 195.66 149.2 195.66 145.02C195.66 140.96 192.68 137.66 188 137.66C183.1 137.66 179.24 141.44 179.24 145.78C179.24 149.1 181.02 151.14 182.82 151.14C184.66 151.14 186.26 149.02 187.48 144.92C188.1 142.78 188.5 140.44 188.76 138.36ZM182.02 163.78V165.02H193.3V163.78H182.02ZM186.64 158.18V160.78H188.2V158.18H186.64ZM178.98 175L179.34 176.46C181.72 176.06 185.14 175.48 188.36 174.92L188.26 173.52C184.86 174.1 181.26 174.68 178.98 175ZM187.3 168L185.92 168.34C187.5 172.88 190.6 175.58 195.78 176.62C195.98 176.24 196.4 175.62 196.72 175.28C191.76 174.44 188.66 171.98 187.3 168ZM194.48 168.58C193.08 169.76 190.76 171.28 189.06 172.16L190.06 173.02C191.78 172.16 194.04 170.74 195.64 169.5L194.48 168.58ZM181.96 160.12V161.46H192.68V167.4H181.96V168.74H194.2V160.12H181.96ZM181.16 160.12V175.16L182.7 175.04V160.12H181.16ZM181.96 184.06L180.02 184.02C180.14 184.48 180.14 185.34 180.14 185.8C180.14 186.96 180.18 189.4 180.36 191.12C180.92 196.3 182.72 198.18 184.62 198.18C185.98 198.18 187.18 197.02 188.4 193.64L187.14 192.22C186.62 194.22 185.68 196.28 184.66 196.28C183.22 196.28 182.26 194.06 181.92 190.72C181.78 189.08 181.76 187.24 181.78 186C181.8 185.48 181.86 184.52 181.96 184.06ZM192.36 184.6L190.82 185.14C192.72 187.48 193.94 191.6 194.28 195.2L195.9 194.56C195.6 191.18 194.16 186.92 192.36 184.6ZM178.56 216.44V217.7H196.44V216.44H178.56ZM181.92 209.14V210.2H194.3V209.14H181.92ZM181.92 211.54V212.62H194.36V211.54H181.92ZM181.68 206.58V207.82H195.12V206.58H181.68ZM187.08 207.28V214.46H188.54V207.28H187.08ZM186.7 214.84V222.6H188.2V214.84H186.7ZM186.38 216.9C184.56 218.7 181.04 220.38 178.06 221.14C178.4 221.44 178.84 222 179.06 222.4C182 221.48 185.56 219.58 187.54 217.5L186.38 216.9ZM188.54 216.9L187.38 217.5C189.36 219.52 192.9 221.36 195.88 222.24C196.1 221.86 196.52 221.3 196.84 221C193.84 220.26 190.34 218.66 188.54 216.9ZM188.02 204.2C187.74 205.06 187.16 206.3 186.68 207.1L188 207.38C188.52 206.62 189.14 205.5 189.7 204.44L188.02 204.2ZM182.8 204.18C181.9 206 180.26 208.34 178.02 210.1C178.36 210.3 178.86 210.76 179.12 211.1C181.5 209.1 183.18 206.66 184.36 204.46L182.8 204.18ZM180.98 207.4V215.2H195.9V214H182.42V207.4H180.98ZM179.42 230.78V240.3H180.92V232.26H193.98V240.2H195.54V230.78H179.42ZM180.22 237.58V239.04H194.88V237.58H180.22ZM186.66 227.2V245.58H188.22V227.2H186.66ZM185.92 252.6V253.92H195.92V252.6H185.92ZM185.06 256.48V257.82H196.78V256.48H185.06ZM185.16 260.1V261.44H196.56V260.1H185.16ZM190.12 250.2V257.3H191.6V250.2H190.12ZM192.76 257.62V266.8C192.76 267.1 192.66 267.18 192.32 267.2C192 267.22 190.88 267.22 189.64 267.18C189.86 267.58 190.1 268.18 190.16 268.58C191.76 268.58 192.78 268.56 193.4 268.34C194.02 268.12 194.22 267.68 194.22 266.82V257.62H192.76ZM186.38 262.84C187.4 263.88 188.48 265.38 188.92 266.36L190.22 265.56C189.74 264.58 188.62 263.16 187.58 262.12L186.38 262.84ZM179.72 251.52V252.88H183.32V263.3H179.72V264.66H184.72V251.52H179.72ZM179.78 257.34V258.68H183.98V257.34H179.78ZM179 251.52V266.3H180.42V251.52H179ZM184.44 285.46V286.62H190.5V285.46H184.44ZM184.38 282.44V283.62H189.78V288.58H184.38V289.74H191.2V282.44H184.38ZM183.72 282.44V290.76H185.1V282.44H183.72ZM180.04 276.9V278H185.6V276.9H180.04ZM189.26 276.9V278H194.92V276.9H189.26ZM194.3 274.06V289.62C194.3 289.96 194.18 290.08 193.82 290.08C193.46 290.1 192.24 290.12 191.02 290.06C191.24 290.48 191.48 291.18 191.54 291.6C193.22 291.6 194.3 291.58 194.94 291.34C195.58 291.08 195.8 290.58 195.8 289.62V274.06H194.3ZM180.16 274.06V275.22H185.14V279.78H180.16V280.94H186.56V274.06H180.16ZM195.04 274.06H188.36V280.96H195.04V279.82H189.8V275.22H195.04V274.06ZM179.3 274.06V291.62H180.78V274.06H179.3Z" fill="#41436A"/>
</g>
</svg>
